D:\school\WTK\thesis\model\3dpredictsim\Results\debug_batch\Pog_s1_tmt_bCst_d00_k2000_ig24_pas_GRF.mot
nRows=10
nColumns=19

name D:\school\WTK\thesis\model\3dpredictsim\Results\debug_batch\Pog_s1_tmt_bCst_d00_k2000_ig24_pas_GRF.mot
datacolumns 19
datarows 10
range 0.0000000000 0.0991067946
endheader
time 	ground_force_vx	ground_force_vy	ground_force_vz	ground_force_px	ground_force_py	ground_force_pz	1_ground_force_vx	1_ground_force_vy	1_ground_force_vz	1_ground_force_px	1_ground_force_py	1_ground_force_pz	ground_torque_x	ground_torque_y	ground_torque_z	1_ground_torque_x	1_ground_torque_y	1_ground_torque_z
        0.0000000000	      -73.5367910697	       58.3940082962	       24.7024473324	        0.1763860382	        0.0000000000	        0.0393339925	      101.6594391807	      547.2700391927	       -2.5080231054	       -0.3058495007	        0.0000000000	       -0.0374399705	        0.0000000000	        0.0000000000	        0.0000000000	        0.0000000000	        0.0000000000	        0.0000000000	
        0.0110118661	     -116.3930604370	      128.6321048294	       63.8224828351	        0.1842427420	        0.0000000000	        0.0370292055	       88.7065969420	      474.5357092125	       -6.0382540258	       -0.3030671166	        0.0000000000	       -0.0367884495	        0.0000000000	        0.0000000000	        0.0000000000	        0.0000000000	        0.0000000000	        0.0000000000	
        0.0220237321	      -44.3738352158	      252.9910098840	       33.9718845371	        0.1898301221	        0.0000000000	        0.0346363650	       73.3118160633	      390.6057071218	       -8.2256345771	       -0.2989817348	        0.0000000000	       -0.0355637595	        0.0000000000	        0.0000000000	        0.0000000000	        0.0000000000	        0.0000000000	        0.0000000000	
        0.0330355982	      -33.7833170212	      389.6638708981	        5.2479172225	        0.1927735038	        0.0000000000	        0.0342107793	       56.0170477149	      305.3906007289	       -4.4492115165	       -0.2928923292	        0.0000000000	       -0.0332682450	        0.0000000000	        0.0000000000	        0.0000000000	        0.0000000000	        0.0000000000	        0.0000000000	
        0.0440474643	      -58.6144347668	      541.3896230662	       -3.1425500745	        0.1988839147	        0.0000000000	        0.0359084940	       27.9438450926	      209.4743792224	       -5.8968330348	       -0.2818811089	        0.0000000000	       -0.0285901529	        0.0000000000	        0.0000000000	        0.0000000000	        0.0000000000	        0.0000000000	        0.0000000000	
        0.0550593303	      -87.1138908732	      686.9968994208	       -8.3692522873	        0.2061024833	        0.0000000000	        0.0381486606	       10.0203691577	      140.3339869911	      -11.7007137809	       -0.2672259507	        0.0000000000	       -0.0215657444	        0.0000000000	        0.0000000000	        0.0000000000	        0.0000000000	        0.0000000000	        0.0000000000	
        0.0660711964	     -102.1319459220	      772.6794855919	      -10.6650973448	        0.2112003706	        0.0000000000	        0.0395987146	        2.9256619711	      116.3433297220	      -12.9659066579	       -0.2675521094	        0.0000000000	       -0.0218877600	        0.0000000000	        0.0000000000	        0.0000000000	        0.0000000000	        0.0000000000	        0.0000000000	
        0.0770830625	     -103.0440907059	      800.8422299937	      -11.5919290953	        0.2148646568	        0.0000000000	        0.0405036536	        0.5989573493	       83.5538407753	      -13.1417996961	       -0.2669662364	        0.0000000000	       -0.0219762533	        0.0000000000	        0.0000000000	        0.0000000000	        0.0000000000	        0.0000000000	        0.0000000000	
        0.0880949285	      -97.2247340203	      796.1482291060	      -11.3394922551	        0.2178821873	        0.0000000000	        0.0410748983	       -4.5862490823	       46.1673965331	      -10.1802532279	       -0.2666925644	        0.0000000000	       -0.0219480923	        0.0000000000	        0.0000000000	        0.0000000000	        0.0000000000	        0.0000000000	        0.0000000000	
        0.0991067946	      -89.5767052482	      783.2387280835	      -12.0748663395	        0.2209790648	        0.0000000000	        0.0413835016	       -5.7486880463	        8.3644853028	       -1.9160151864	        0.0000000000	        0.0000000000	        0.0000000000	        0.0000000000	        0.0000000000	        0.0000000000	        0.0000000000	        0.0000000000	        0.0000000000	
